<?xml version="1.0" standalone="no"?>
<!DOCTYPE svg PUBLIC "-//W3C//DTD SVG 20010904//EN"
 "http://www.w3.org/TR/2001/REC-SVG-20010904/DTD/svg10.dtd">
<svg version="1.0" xmlns="http://www.w3.org/2000/svg"
 width="700.000000pt" height="700.000000pt" viewBox="0 0 700.000000 700.000000"
 preserveAspectRatio="xMidYMid meet">
<metadata>
Created by potrace 1.14, written by Peter Selinger 2001-2017
</metadata>
<g transform="translate(0.000000,700.000000) scale(0.100000,-0.100000)"
fill="#000000" stroke="none">
<path d="M1622 6113 c-393 -59 -689 -365 -739 -763 -10 -81 -9 -3644 1 -3720
30 -222 155 -433 342 -580 61 -49 186 -111 269 -135 140 -41 140 -41 2040 -39
l1830 1 96 26 c303 80 541 306 624 592 41 138 41 146 40 2020 -1 996 -5 1830
-9 1855 -11 70 -44 185 -68 238 -38 83 -124 205 -190 268 -132 127 -277 200
-478 240 -64 13 -3673 10 -3758 -3z m3708 -583 c90 -25 176 -112 201 -203 11
-41 15 -3584 4 -3641 -15 -76 -78 -156 -157 -198 l-43 -23 -1835 0 -1835 0
-43 23 c-80 43 -139 118 -157 201 -8 39 -8 3581 0 3625 18 93 107 187 205 217
38 11 3618 11 3660 -1z"/>
<path d="M3325 5230 c-130 -29 -193 -55 -305 -127 -117 -75 -222 -188 -285
-307 -88 -166 -107 -254 -109 -516 l-2 -195 -24 -1 c-172 -9 -359 -112 -452
-249 -40 -59 -80 -151 -94 -218 -18 -90 -17 -1020 2 -1111 46 -221 229 -405
447 -450 48 -10 268 -13 992 -13 1017 -1 1008 -1 1132 58 164 78 289 242 321
419 6 33 9 266 8 575 l-2 520 -28 75 c-87 231 -288 381 -526 394 l-24 1 -2
200 c-2 164 -6 216 -24 290 -45 192 -167 380 -319 493 -20 15 -38 30 -41 33
-21 28 -234 116 -325 135 -72 15 -261 12 -340 -6z m309 -598 c26 -14 65 -46
86 -70 61 -68 70 -110 70 -307 l0 -171 -291 0 -291 0 4 191 c3 177 5 193 27
230 85 148 255 203 395 127z m741 -1557 c1 -231 -1 -427 -3 -435 -3 -13 -107
-15 -875 -15 l-872 0 1 435 c1 239 2 436 3 438 0 1 394 1 874 0 l872 -3 0
-420z"/>
</g>
</svg>
